<?xml version="1.0" encoding="UTF-8" standalone="no"?>
<svg
   width="1440"
   height="7205"
   viewBox="0 0 1440 7205"
   fill="none"
   version="1.1"
   id="svg16"
   sodipodi:docname="bg.svg"
   xmlns:inkscape="http://www.inkscape.org/namespaces/inkscape"
   xmlns:sodipodi="http://sodipodi.sourceforge.net/DTD/sodipodi-0.dtd"
   xmlns="http://www.w3.org/2000/svg"
   xmlns:svg="http://www.w3.org/2000/svg">
  <sodipodi:namedview
     id="namedview16"
     pagecolor="#ffffff"
     bordercolor="#999999"
     borderopacity="1"
     inkscape:showpageshadow="2"
     inkscape:pageopacity="0"
     inkscape:pagecheckerboard="0"
     inkscape:deskcolor="#d1d1d1" />
  <g
     clip-path="url(#clip0_45_12)"
     id="g7"
     style="display:inline">
    <rect
       width="1440"
       height="7205"
       fill="#ffffff"
       id="rect1"
       x="0"
       y="0" />
    <path
       d="M 973.624,419.489 C 528.459,135.279 902.143,6.95054 1144.63,-21.6872 l 77.63,-128.3488 c 62.1,-102.68 467.42,283.489 662.31,489.408 -118.16,145.127 -465.78,364.328 -910.946,80.117 z"
       fill="#f5fff9"
       fill-opacity="0.39"
       id="path1" />
    <path
       d="M -0.729804,2087.52 C 781.666,1494.67 289.526,1400.02 -197.789,1387.84 l -252.124,-315.57 c -461.786,-369.836 -436.079,277.42 -556.117,505.91 187.812,269.9 663.529,768.31 1005.300196,509.34 z"
       fill="#f5fff9"
       fill-opacity="0.39"
       id="path2" />
    <path
       d="m 2460.7017,3210.0591 c 0,530.75 -430.254,961 -961,961 -530.74601,0 -961.00006,-430.25 -961.00006,-961 0,-530.75 430.25405,-961 961.00006,-961 530.746,0 961,430.25 961,961 z"
       fill="url(#paint0_radial_45_12)"
       id="path3"
       style="fill:url(#paint0_radial_45_12)" />
    <path
       d="m 1694.6116,1734.5958 c 0,483.25 -391.75,875 -874.99995,875 -483.249,0 -875.000004,-391.75 -875.000004,-875 0,-483.25 391.751004,-875.00003 875.000004,-875.00003 483.24995,0 874.99995,391.75003 874.99995,875.00003 z"
       fill="url(#paint1_radial_45_12)"
       id="path4"
       style="fill:url(#paint1_radial_45_12)" />
    <path
       d="m 1532.7547,2099.1395 c 0,483.25 -391.75,875 -875.00003,875 -483.249,0 -875.00005,-391.75 -875.00005,-875 0,-483.25 391.75105,-875 875.00005,-875 483.25003,0 875.00003,391.75 875.00003,875 z"
       fill="url(#paint1_radial_45_12)"
       id="path4-9"
       style="display:inline;fill:url(#paint1_radial_45_12-47)" />
    <path
       d="m 843.5666,510.7537 c 0,367.309 -301.97002,665.0706 -674.4704,665.0706 -372.49961,0 -674.47043,-297.7616 -674.47043,-665.0706 0,-367.30895 301.97082,-665.07057 674.47043,-665.07057 372.50038,0 674.4704,297.76162 674.4704,665.07057 z"
       fill="url(#paint1_radial_45_12)"
       id="path4-3"
       style="display:inline;fill:url(#paint1_radial_45_12-4);stroke-width:0.765433" />
    <path
       d="m 1783.1412,4932.7247 c 0,501.3671 -426.07,907.7979 -951.66371,907.7979 -525.58892,0 -951.66374,-406.4308 -951.66374,-907.7979 0,-501.367 426.07482,-907.7979 951.66374,-907.7979 525.59371,0 951.66371,406.4309 951.66371,907.7979 z"
       fill="url(#paint3_radial_45_12)"
       id="path6"
       style="fill:url(#paint3_radial_45_12);stroke-width:1.16915" />
    <path
       d="m 1296.3239,5681.2754 c 0,439.07 -355.93397,795 -794.99997,795 -439.065999,0 -795.00001,-355.93 -795.00001,-795 0,-439.07 355.934011,-795 795.00001,-795 439.066,0 794.99997,355.93 794.99997,795 z"
       fill="url(#paint4_radial_45_12)"
       id="path7"
       inkscape:label="path7"
       style="fill:url(#paint4_radial_45_12)" />
  </g>
  <defs
     id="defs16">
    <radialGradient
       id="paint0_radial_45_12"
       cx="0"
       cy="0"
       r="1"
       gradientUnits="userSpaceOnUse"
       gradientTransform="matrix(0,961,-961,0,1499.7017,3210.0591)">
      <stop
         stop-color="#00FF62"
         stop-opacity="0.57"
         id="stop7"
         offset="0"
         style="stop-color:#468cff;stop-opacity:0.72692305;" />
      <stop
         offset="1"
         stop-color="white"
         stop-opacity="0"
         id="stop8" />
    </radialGradient>
    <radialGradient
       id="paint1_radial_45_12"
       cx="0"
       cy="0"
       r="1"
       gradientUnits="userSpaceOnUse"
       gradientTransform="matrix(0,875,-875,0,819.61165,1734.5958)">
      <stop
         stop-color="#00FF62"
         stop-opacity="0.57"
         id="stop9"
         offset="0"
         style="stop-color:#2297ff;stop-opacity:0.56999999;" />
      <stop
         offset="1"
         stop-color="white"
         stop-opacity="0"
         id="stop10" />
    </radialGradient>
    <radialGradient
       id="paint3_radial_45_12"
       cx="0"
       cy="0"
       r="1"
       gradientUnits="userSpaceOnUse"
       gradientTransform="matrix(0,907.79786,-951.66373,0,831.47748,4932.7246)">
      <stop
         stop-color="#00FF62"
         stop-opacity="0.57"
         id="stop13"
         offset="0"
         style="stop-color:#468cff;stop-opacity:0.53076923;" />
      <stop
         offset="1"
         stop-color="white"
         stop-opacity="0"
         id="stop14" />
    </radialGradient>
    <radialGradient
       id="paint4_radial_45_12"
       cx="0"
       cy="0"
       r="1"
       gradientUnits="userSpaceOnUse"
       gradientTransform="matrix(0,795,-795,0,501.32393,5681.2754)">
      <stop
         stop-color="#00FF62"
         stop-opacity="0.57"
         id="stop15"
         offset="0"
         style="stop-color:#468cff;stop-opacity:0.56999999;" />
      <stop
         offset="1"
         stop-color="white"
         stop-opacity="0"
         id="stop16" />
    </radialGradient>
    <clipPath
       id="clip0_45_12">
      <rect
         width="1440"
         height="7205"
         fill="#ffffff"
         id="rect16"
         x="0"
         y="0" />
    </clipPath>
    <radialGradient
       id="paint1_radial_45_12-4"
       cx="0"
       cy="0"
       r="1"
       gradientUnits="userSpaceOnUse"
       gradientTransform="matrix(0,665.0706,-674.4704,0,169.0962,510.7537)">
      <stop
         stop-color="#00FF62"
         stop-opacity="0.57"
         id="stop9-8"
         offset="0"
         style="stop-color:#468cff;stop-opacity:0.51923078;" />
      <stop
         offset="1"
         stop-color="white"
         stop-opacity="0"
         id="stop10-8" />
    </radialGradient>
    <radialGradient
       id="paint1_radial_45_12-47"
       cx="0"
       cy="0"
       r="1"
       gradientUnits="userSpaceOnUse"
       gradientTransform="matrix(0,875,-875,0,657.75467,2099.1395)">
      <stop
         stop-color="#00FF62"
         stop-opacity="0.57"
         id="stop9-4"
         offset="0"
         style="stop-color:#b3e0dd;stop-opacity:0.24615385;" />
      <stop
         offset="1"
         stop-color="white"
         stop-opacity="0"
         id="stop10-4" />
    </radialGradient>
  </defs>
</svg>
